<?xml version="1.0" encoding="UTF-8" standalone="no"?>
<!-- Created with Inkscape (http://www.inkscape.org/) -->

<svg
   width="1mm"
   height="0.99999613mm"
   viewBox="0 0 0.99999998 0.99999613"
   version="1.1"
   id="svg1"
   xml:space="preserve"
   xmlns:inkscape="http://www.inkscape.org/namespaces/inkscape"
   xmlns:sodipodi="http://sodipodi.sourceforge.net/DTD/sodipodi-0.dtd"
   xmlns="http://www.w3.org/2000/svg"
   xmlns:svg="http://www.w3.org/2000/svg"><sodipodi:namedview
     id="namedview1"
     pagecolor="#ffffff"
     bordercolor="#666666"
     borderopacity="1.0"
     inkscape:showpageshadow="2"
     inkscape:pageopacity="0.0"
     inkscape:pagecheckerboard="0"
     inkscape:deskcolor="#d1d1d1"
     inkscape:document-units="mm" /><defs
     id="defs1" /><g
     inkscape:label="Layer 1"
     inkscape:groupmode="layer"
     id="layer1"><path
       id="rect1"
       style="opacity:1;fill:#000000;stroke-width:0.0143469;stroke-linecap:round;stroke-linejoin:round"
       d="M 0.50000023,0 C 0.47165759,-5.545189e-8 0.4433074,0.01085607 0.42159029,0.03257305 l -0.0335772,0.03357569 1e-7,0.13344327 c -1e-7,0.0921373 -0.0741944,0.16630258 -0.16633169,0.16630258 l -0.1334144,1.4e-7 -0.05569216,0.0556921 c -0.04343389,0.0434339 -0.04343378,0.11335769 1.8e-7,0.15679157 l 0.38901365,0.38904197 c 0.0434339,0.0434343 0.11338603,0.0434343 0.15682029,0 L 0.96742418,0.578407 c 0.0434339,-0.0434339 0.0434339,-0.11338603 3e-8,-0.1568203 L 0.57838196,0.0325732 C 0.55666499,0.01085622 0.52834211,0 0.50000023,0 Z"
       inkscape:export-filename="diamond.svg"
       inkscape:export-xdpi="96"
       inkscape:export-ydpi="96" /></g></svg>
