<?xml version="1.0" encoding="UTF-8" standalone="no"?>
<!-- Created with Inkscape (http://www.inkscape.org/) -->

<svg
   width="135.46671mm"
   height="294.21667mm"
   viewBox="0 0 135.46671 294.21667"
   version="1.1"
   id="svg1"
   xml:space="preserve"
   inkscape:version="1.3.2 (091e20e, 2023-11-25, custom)"
   sodipodi:docname="favicon.svg"
   xmlns:inkscape="http://www.inkscape.org/namespaces/inkscape"
   xmlns:sodipodi="http://sodipodi.sourceforge.net/DTD/sodipodi-0.dtd"
   xmlns="http://www.w3.org/2000/svg"
   xmlns:svg="http://www.w3.org/2000/svg"><sodipodi:namedview
     id="namedview1"
     pagecolor="#ffffff"
     bordercolor="#666666"
     borderopacity="1.0"
     inkscape:showpageshadow="2"
     inkscape:pageopacity="0.0"
     inkscape:pagecheckerboard="0"
     inkscape:deskcolor="#d1d1d1"
     inkscape:document-units="mm"
     inkscape:zoom="0.53050295"
     inkscape:cx="139.49027"
     inkscape:cy="977.3744"
     inkscape:window-width="2560"
     inkscape:window-height="1369"
     inkscape:window-x="-8"
     inkscape:window-y="-8"
     inkscape:window-maximized="1"
     inkscape:current-layer="layer1" /><defs
     id="defs1" /><g
     inkscape:label="Layer 1"
     inkscape:groupmode="layer"
     id="layer1"><circle
       style="fill:#1d252f;fill-opacity:1;stroke:none;stroke-width:0.220117;stroke-linecap:round;stroke-linejoin:round"
       id="path2"
       cx="67.733368"
       cy="67.73333"
       r="67.73333"
       inkscape:export-filename="Icon-512.png"
       inkscape:export-xdpi="96.000023"
       inkscape:export-ydpi="96.000023" /><path
       style="fill:#5599ff;stroke:none;stroke-width:0.24584px;stroke-linecap:butt;stroke-linejoin:miter;stroke-opacity:1"
       d="m 55.484914,20.667009 c 6.06937,-1.31909 9.93719,2.71405 10.83951,6.86579 0.90232,4.15173 -0.62119,7.02444 0.13002,9.27716 0.75119,2.2527 2.27037,4.15928 2.92685,4.0166 5.779957,-1.25618 17.651347,-3.83625 17.651347,-3.83625 0.56636,-0.12309 1.30734,0.42217 1.43043,0.98853 1.26925,5.8401 1.69296,10.77657 3.14292,15.18586 0.50545,1.53711 2.13557,1.45587 4.54626,1.29277 2.41069,-0.16309 4.349219,-2.6219 8.938009,-3.61919 4.58877,-0.99731 9.90127,2.10445 11.07267,7.36002 1.17141,5.25558 -2.63876,10.54958 -6.97545,11.4921 -4.33669,0.94251 -7.17122,-0.3696 -9.365909,0.10738 -2.19471,0.47699 -4.04809,2.01053 -3.88261,2.77198 l 5.750019,26.45699 c 0,0 -0.0291,1.808761 -0.70663,1.955981 l -17.811439,3.87105 c -0.85132,0.18502 -2.48811,-1.61216 -2.89381,-3.47887 -0.40571,-1.866721 0.63472,-6.915641 -0.14214,-10.490111 -0.77685,-3.57444 -5.41427,-7.62571 -10.712517,-6.47422 -5.29824,1.15149 -8.29976,7.32733 -7.58447,10.61846 0.71527,3.29115 3.05157,6.519191 3.60525,9.066791 0.55369,2.5476 -0.18037,4.65 -1.12445,4.85517 -7.30447,1.58753 -15.18585,3.04893 -25.10829,5.20542 -0.60408,0.13129 -1.39658,-0.4471 -1.52786,-1.05118 -1.91112,-8.79345 -3.8617,-18.925651 -5.51858,-26.549221 -0.0549,-0.25276 1.6695,-2.27486 3.91046,-3.02953 2.24096,-0.75468 5.43117,0.91543 9.24061,0.0875 3.80944,-0.82792 8.05161,-5.57613 6.87101,-11.00831 -1.18061,-5.43219 -6.91103,-8.7675 -10.85686,-7.90992 -3.94583,0.85756 -6.13669,3.31829 -8.53775,3.5322 -2.40106,0.21392 -4.73422,0.58926 -5.10402,-1.11228 -1.08711,-5.002 -2.12875,-9.79476 -3.30561,-15.20978 -0.15081,-0.6939 0.66876,-1.48667 1.36268,-1.63748 8.3026,-1.80445 17.22237,-3.65916 24.71327,-5.28719 1.39705,-0.30363 1.20626,-2.71568 0.95217,-5.06925 -0.25407,-2.35357 -2.62966,-4.19213 -3.52873,-8.32891 -0.89906,-4.1368 1.53427,-9.59699 7.60364,-10.91608 z"
       id="path1"
       sodipodi:nodetypes="zzzsssszzzzzscsszzzzzsssszzzzzsssszzz" /><rect
       style="fill:#1d252f;fill-opacity:1;stroke:none;stroke-width:0.525319;stroke-linecap:round;stroke-linejoin:round"
       id="rect3"
       width="135.46666"
       height="135.46666"
       x="0"
       y="158.75"
       inkscape:export-filename="Icon-maskable-192.png"
       inkscape:export-xdpi="36"
       inkscape:export-ydpi="36" /><path
       style="fill:#5599ff;stroke:none;stroke-width:0.24584px;stroke-linecap:butt;stroke-linejoin:miter;stroke-opacity:1"
       d="m 55.484914,179.4171 c 6.06937,-1.3191 9.93719,2.714 10.83951,6.8658 0.90232,4.1517 -0.62119,7.0244 0.13002,9.2771 0.75119,2.2527 2.27037,4.1593 2.92685,4.0166 5.779957,-1.2561 17.651347,-3.8362 17.651347,-3.8362 0.56636,-0.1231 1.30734,0.4222 1.43043,0.9885 1.26925,5.8401 1.69296,10.7766 3.14292,15.1859 0.50545,1.5371 2.13557,1.4559 4.54626,1.2928 2.41069,-0.1631 4.349219,-2.6219 8.938009,-3.6192 4.58877,-0.9973 9.90127,2.1044 11.07267,7.36 1.17141,5.2556 -2.63876,10.5496 -6.97545,11.4921 -4.33669,0.9425 -7.17122,-0.3696 -9.365909,0.1074 -2.19471,0.477 -4.04809,2.0105 -3.88261,2.7719 l 5.750019,26.457 c 0,0 -0.0291,1.8088 -0.70663,1.956 l -17.811439,3.8711 c -0.85132,0.185 -2.48811,-1.6122 -2.89381,-3.4789 -0.40571,-1.8667 0.63472,-6.9156 -0.14214,-10.4901 -0.77685,-3.5745 -5.41427,-7.6257 -10.712517,-6.4742 -5.29824,1.1515 -8.29976,7.3273 -7.58447,10.6184 0.71527,3.2912 3.05157,6.5192 3.60525,9.0668 0.55369,2.5476 -0.18037,4.65 -1.12445,4.8552 -7.30447,1.5875 -15.18585,3.0489 -25.10829,5.2054 -0.60408,0.1313 -1.39658,-0.4471 -1.52786,-1.0512 -1.91112,-8.7934 -3.8617,-18.9256 -5.51858,-26.5492 -0.0549,-0.2528 1.6695,-2.2749 3.91046,-3.0295 2.24096,-0.7547 5.43117,0.9154 9.24061,0.087 3.80944,-0.8279 8.05161,-5.5762 6.87101,-11.0083 -1.18061,-5.4322 -6.91103,-8.7675 -10.85686,-7.91 -3.94583,0.8576 -6.13669,3.3183 -8.53775,3.5322 -2.40106,0.214 -4.73422,0.5893 -5.10402,-1.1122 -1.08711,-5.002 -2.12875,-9.7948 -3.30561,-15.2098 -0.15081,-0.6939 0.66876,-1.4867 1.36268,-1.6375 8.3026,-1.8044 17.22237,-3.6592 24.71327,-5.2872 1.39705,-0.3036 1.20626,-2.7157 0.95217,-5.0692 -0.25407,-2.3536 -2.62966,-4.1922 -3.52873,-8.3289 -0.89906,-4.1368 1.53427,-9.597 7.60364,-10.9161 z"
       id="path3"
       sodipodi:nodetypes="zzzsssszzzzzscsszzzzzsssszzzzzsssszzz" /></g></svg>
